<svg width="437" height="350" viewBox="0 0 437 350" fill="none" xmlns="http://www.w3.org/2000/svg">
<circle cx="218" cy="175" r="175" fill="#F6C14C"/>
<path d="M364.296 175C364.296 94.2028 298.797 28.7037 218 28.7037C137.203 28.7037 71.7037 94.2028 71.7037 175C71.7037 255.797 137.203 321.296 218 321.296V325C135.157 325 68 257.843 68 175C68 92.1573 135.157 25 218 25C300.843 25 368 92.1573 368 175C368 257.843 300.843 325 218 325V321.296C298.797 321.296 364.296 255.797 364.296 175Z" fill="white"/>
<path d="M24.1895 117.62C11.119 120.662 3.62606 127.141 0.752806 137.845C-0.148606 141.282 -0.261283 150.014 0.527453 152.944C1.31619 155.761 3.28803 158.521 5.5979 160.099C8.07678 161.733 12.9219 163.141 15.4571 162.916L17.4289 162.747L15.7388 160.211C11.4007 153.676 11.1754 137.732 15.2881 131.873C16.5839 130.07 18.6684 128.887 21.8796 128.155L24.1895 127.648V170.69V213.733H33.767H43.3445V189.507V165.282H52.922H62.4995V160.211V155.141H52.922H43.3445V142.69V130.239L44.922 130.577C49.9924 131.648 56.8094 132.606 59.0629 132.606C66.4432 132.606 69.7672 129.169 70.6686 120.549L71.1193 116.718L68.6404 117.169C65.8235 117.732 56.4713 117.732 39.1192 117.225C30.3304 116.944 26.4994 117.056 24.1895 117.62Z" fill="#2C9A6E"/>
<path d="M258.557 124.38L250.388 125.563L250.106 159.93C249.768 193.902 249.768 194.352 248.529 197.733C247.007 201.845 244.078 205.451 241.036 206.972C239.853 207.592 238.726 208.099 238.557 208.099C238.388 208.099 238.275 194.803 238.275 178.521V148.944H228.698H219.12V150.972V153L216.754 150.972C213.993 148.606 212.134 148.155 205.993 148.493C202.557 148.662 200.528 149.113 198.106 150.239C191.458 153.282 185.88 161.113 183.571 170.69C182.049 177 181.824 188.606 183.176 193.507C183.965 196.381 183.965 196.831 183.12 198.183C181.092 201.507 174.782 202.521 172.303 199.874L170.951 198.409L170.782 173.676L170.613 148.944H161.092H151.514V170.747C151.514 184.944 151.289 193.395 150.894 194.859C150.556 196.099 149.317 198.014 148.078 199.254C146.162 201.169 145.655 201.395 143.57 201.226C141.768 201.113 140.923 200.719 140.021 199.479C138.894 197.902 138.838 197.226 138.669 173.395L138.5 148.944H128.979H119.401V172.155C119.401 184.944 119.683 197.169 119.965 199.254C120.641 204.043 122.951 208.831 125.542 210.972C128.697 213.564 132.246 214.465 138.218 214.183C142.556 214.014 143.796 213.733 145.937 212.493C148.866 210.747 152.416 207.028 153.43 204.606L154.162 202.972L155.176 205.62C156.472 209.057 160.134 212.719 163.12 213.62C166.331 214.578 173.261 214.465 176.641 213.451C180.247 212.324 184.19 209.395 186.219 206.296L187.796 203.817L189.937 205.958C192.472 208.493 196.416 210.578 200.416 211.423C207.12 212.831 211.852 211.592 216.19 207.254L219.12 204.324V209.057C219.12 213.057 218.951 213.789 218.162 214.071C215.571 214.916 209.036 218.352 207.289 219.817C200.528 225.451 200.134 235.761 206.5 241.338C210.331 244.662 213.036 245.564 219.683 245.564C224.529 245.564 226.05 245.338 228.134 244.381C235.233 241.057 238.275 234.014 238.275 220.719V215.029L242.444 212.944C245.261 211.592 247.458 209.958 249.148 208.099C251.796 205.113 252.36 204.775 252.36 206.071C252.36 206.465 253.374 207.986 254.613 209.395C258.05 213.282 261.712 214.465 268.979 214.183C275.684 213.845 278.67 212.662 282.444 208.831C286.444 204.775 290.106 196.55 290.106 191.535C290.106 190.183 289.937 190.071 287.346 190.071C284.585 190.071 284.585 190.071 284.191 192.212C283.346 197.282 279.402 201.338 275.402 201.338C272.416 201.338 270.557 200.324 269.824 198.352C269.486 197.226 269.261 184.099 269.261 159.873V123.028L268.022 123.084C267.289 123.141 263.064 123.704 258.557 124.38ZM216.359 157.394C218.838 158.747 219.12 160.437 219.12 175.535C219.12 184.211 218.895 190.69 218.5 192.042C217.655 195.085 214.219 198.296 211.345 198.803C207.627 199.423 205.261 198.014 203.458 194.183C201.993 191.028 201.937 190.578 201.937 181.62C201.937 174.24 202.162 171.648 203.007 168.944C205.374 161.113 208.923 156.831 212.979 156.831C214.219 156.831 215.74 157.113 216.359 157.394ZM219.12 224.268C219.064 230.803 217.317 234.747 214.219 235.029C213.036 235.141 211.965 234.747 210.895 233.845C208.641 231.874 208.697 228.493 211.007 226.014C212.528 224.437 217.712 221.057 218.726 221.057C218.951 221.057 219.12 222.521 219.12 224.268Z" fill="#2C9A6E"/>
<path d="M98.6686 149.225C97.6545 149.676 95.2883 151.479 93.4855 153.225L90.1052 156.437V152.718V148.944H80.5277H70.9502V181.338V213.733H80.5277H90.1052V189.282V164.887L92.5841 162.578C95.1193 160.211 97.3165 159.254 98.8376 159.817C99.2883 160.042 100.302 161.394 101.035 162.972C102.894 166.578 104.302 167.535 107.852 167.535C112.584 167.535 114.894 164.944 114.894 159.535C114.894 155.93 113.317 152.944 110.218 150.409C108.359 148.944 107.514 148.662 104.302 148.549C101.824 148.437 99.8517 148.662 98.6686 149.225Z" fill="#2C9A6E"/>
<path fill-rule="evenodd" clip-rule="evenodd" d="M398.616 212.315C396.023 213.085 391.448 213.733 388.573 213.733C386.661 213.733 384.318 213.446 382.131 213.017C379.959 212.591 377.768 211.99 376.201 211.294C370.891 208.929 368.177 207.113 364.415 203.374L364.413 203.372L364.41 203.37C362.477 201.436 360.081 198.403 359.113 196.641L359.105 196.626C357.916 194.421 357.169 192.837 356.696 191.324C356.636 191.133 356.568 190.942 356.512 190.802C356.501 190.776 356.492 190.754 356.484 190.737C356.482 190.731 356.479 190.725 356.477 190.72C356.377 190.552 356.319 190.408 356.301 190.364L356.3 190.361C356.265 190.275 356.236 190.193 356.213 190.127C356.168 189.994 356.123 189.841 356.078 189.688C355.989 189.376 355.881 188.972 355.765 188.519C355.533 187.607 355.251 186.436 354.981 185.271L354.974 185.238L354.967 185.205C354.831 184.527 354.653 182.958 354.565 181.667L354.564 181.659L354.564 181.651C354.552 181.447 354.537 181.256 354.522 181.079C353.94 181.069 353.21 181.068 352.347 181.075L350.49 181.107L350.479 181.199L350.478 181.204L350.478 181.209L350.418 181.655C349.789 186.241 348.826 190.036 347.247 193.491C345.612 197.067 343.367 200.171 340.322 203.372L340.313 203.382L340.303 203.392L339.961 203.737C339.127 204.568 338.06 205.551 337.389 206.065L337.375 206.076L337.361 206.086L337.13 206.259C336.901 206.432 336.681 206.604 336.496 206.752C336.372 206.851 336.27 206.935 336.196 206.997C336.149 207.037 336.124 207.059 336.117 207.065L336.076 207.107L336.01 207.163L335.94 207.221C335.775 207.356 335.589 207.484 335.397 207.592C335.286 207.655 335.137 207.731 334.962 207.797C334.96 207.797 334.957 207.798 334.955 207.799C334.953 207.799 334.951 207.8 334.949 207.801C334.751 207.963 334.546 208.104 334.418 208.191C334.171 208.357 333.887 208.536 333.617 208.696C328.006 212.013 321.905 213.733 315.543 213.733C307.928 213.733 300.097 210.99 293.886 206.212L293.883 206.21C285.42 199.676 281.253 188.987 280.81 177.394C281.091 171.761 281.655 170.211 282.597 167.032C282.834 166.42 283.166 165.653 283.439 165.048C287.123 156.903 295.031 149.461 303.254 146.383L303.274 146.376C303.481 146.301 303.721 146.208 303.953 146.117L303.996 146.1C304.169 146.033 304.36 145.958 304.499 145.906C306.406 145.129 309.295 144.454 311.797 144.161C315.036 143.779 316.786 143.775 319.726 144.165C327.87 145.234 334.72 148.624 340.479 154.406C344.795 158.745 347.042 162.357 348.846 167.861L348.848 167.868L348.85 167.875L349.225 169.045H355.489C355.621 168.661 355.748 168.279 355.815 168.034L355.827 167.989L355.841 167.945C356.266 166.607 356.732 165.535 357.638 163.726L358.054 162.902C359.35 160.334 360.187 159.071 362.126 156.642L362.133 156.633L362.14 156.625C363.259 155.25 365.658 152.826 367.182 151.607C368.081 150.878 369.131 150.094 370.007 149.487C370.445 149.184 370.865 148.906 371.215 148.696C371.386 148.593 371.576 148.486 371.762 148.396C371.812 148.372 371.872 148.344 371.941 148.315C372.015 148.26 372.082 148.213 372.132 148.18C372.285 148.079 372.46 147.976 372.625 147.884C372.964 147.693 373.401 147.466 373.865 147.236C374.782 146.781 375.923 146.257 376.795 145.922C380.94 144.316 386.467 143.589 390.992 144.028L390.996 144.028L391.001 144.029C392.285 144.159 394.076 144.477 395.665 144.819C397.174 145.144 398.814 145.554 399.641 145.922L399.649 145.925L399.658 145.929C399.658 145.929 399.659 145.93 399.661 145.931C399.663 145.932 399.664 145.932 399.666 145.933C399.668 145.934 399.67 145.935 399.673 145.936C399.68 145.939 399.687 145.942 399.697 145.946L399.713 145.953C399.748 145.968 399.791 145.986 399.844 146.007C399.95 146.05 400.082 146.104 400.235 146.164C400.44 146.246 400.669 146.335 400.906 146.429C401.023 146.475 401.142 146.521 401.261 146.568C403.271 147.35 405.763 148.697 408.238 150.333C410.193 151.598 411.198 152.421 413.514 154.584C415.819 156.726 418.855 160.829 420.351 163.753L420.356 163.763C420.848 164.736 421.278 165.633 421.589 166.335C421.712 166.613 421.823 166.876 421.915 167.11C422.168 167.118 422.482 167.121 422.877 167.121C424.091 167.121 425.153 167.146 426.047 167.391C427.145 167.692 427.833 168.267 428.421 168.869L428.437 168.885L428.452 168.901C430.204 170.767 430.328 173.825 428.976 175.904L428.973 175.909L428.969 175.914C427.867 177.589 426.027 178.066 424.175 178.226L424.123 179.315C424.057 181.03 423.884 182.988 423.74 183.709L423.731 183.751L423.721 183.793L423.676 183.99C423.563 184.49 423.413 185.252 423.325 185.775L423.322 185.795L423.319 185.814L423.262 186.101C422.954 187.571 422.29 189.514 421.569 191.291C420.804 193.174 419.862 195.147 419.017 196.356L419.01 196.366L419.004 196.375L418.929 196.487C418.927 196.489 418.926 196.492 418.924 196.495C418.923 196.497 418.922 196.499 418.92 196.501C418.906 196.544 418.894 196.575 418.888 196.591C418.841 196.717 418.791 196.819 418.76 196.879C418.697 197.003 418.628 197.116 418.576 197.198C418.468 197.37 418.331 197.568 418.188 197.767C417.898 198.173 417.507 198.691 417.083 199.238C416.238 200.328 415.196 201.614 414.436 202.476L414.432 202.48L414.427 202.486L414.245 202.687C410.392 206.912 404.393 210.607 398.616 212.315ZM376.308 199.169C380.397 201.869 383.663 202.837 388.688 202.857C395.37 202.876 400.826 200.59 405.806 195.591C408.668 192.708 411.03 188.903 411.84 186.068C411.977 185.58 412.175 184.891 412.313 184.493C412.573 183.686 412.814 181.846 412.899 179.718C412.982 177.605 412.895 175.651 412.681 174.661L412.68 174.656L412.679 174.651C412.137 172.098 410.638 168.438 409.2 166.184L409.189 166.166C408.757 165.475 406.94 163.205 406.26 162.484C402.477 158.569 397.664 155.942 392.475 154.919C392.019 154.838 390.323 154.771 388.361 154.776C387.429 154.779 386.513 154.797 385.769 154.83C385.397 154.846 385.08 154.865 384.833 154.886C384.598 154.906 384.487 154.923 384.463 154.927C380.003 155.988 377.247 157.337 373.924 160.109L373.6 160.382C373.043 160.864 372.089 161.88 371.144 162.997C370.171 164.147 369.427 165.147 369.196 165.567L369.01 165.909C368.095 167.606 367.37 169.212 366.92 170.526C366.456 171.897 366.33 172.441 365.799 175.114L365.797 175.122L365.796 175.13L365.778 175.229C365.69 175.784 365.618 177.21 365.615 178.868C365.612 180.641 365.69 182.121 365.776 182.542C366.699 187.095 367.265 188.629 369.128 191.839L369.131 191.844L369.134 191.849C370.515 194.257 373.518 197.361 376.291 199.158L376.299 199.163L376.308 199.169ZM311.38 202.656C312.267 202.81 313.995 202.894 315.838 202.876C317.689 202.857 319.32 202.739 320.048 202.587C324.327 201.626 327.994 199.72 331.455 196.617C337.255 191.4 340.234 183.016 339.007 175.263L339.006 175.255L339.004 175.247C338.675 173.068 338.073 170.845 337.664 169.944L337.66 169.936L337.656 169.928C335.52 165.125 333.497 162.403 330.441 160.016L330.435 160.011C328.521 158.504 327.138 157.631 325.557 156.916L325.539 156.908L325.521 156.9C324.725 156.522 323.87 156.126 323.637 156.02C323.633 156.019 323.625 156.015 323.612 156.01C323.592 156.003 323.561 155.991 323.517 155.976C323.431 155.946 323.32 155.909 323.182 155.867C322.906 155.782 322.559 155.685 322.165 155.582C321.379 155.377 320.459 155.163 319.644 155.002C319.018 154.885 317.422 154.792 315.649 154.779C313.839 154.765 312.332 154.84 311.864 154.935L311.443 155.023C309.358 155.473 307.541 156.096 305.758 156.942C304.85 157.376 303.928 157.865 303.201 158.287C302.835 158.499 302.538 158.683 302.325 158.826C302.205 158.906 302.142 158.954 302.119 158.972C302.089 159.004 302.065 159.028 302.051 159.041C301.995 159.096 301.942 159.144 301.9 159.181C301.816 159.254 301.722 159.331 301.637 159.4C301.497 159.514 301.326 159.649 301.162 159.778C301.127 159.805 301.093 159.832 301.059 159.859L301.042 159.873L301.023 159.887C298.421 161.858 295.468 165.536 294.016 168.693L294.013 168.699L294.01 168.706C292.13 172.722 291.562 175.53 291.72 179.894L291.72 179.9C291.936 186.304 294.064 191.152 298.692 195.78C302.459 199.547 306.709 201.825 311.38 202.656Z" fill="#2C9A6E"/>
<path d="M315.799 166.832C311.525 167.836 308.832 169.674 306.866 172.88C305.391 175.252 304.921 177.39 305.07 180.916C305.177 183.011 305.284 183.609 305.84 184.934C306.866 187.435 308.169 188.974 310.499 190.47C313.577 192.479 317.467 193.184 320.865 192.372C324.99 191.367 328.986 187.649 330.076 183.737C330.418 182.476 330.504 179.249 330.205 178.159C329.884 176.984 328.965 175.573 328.217 175.081C327.918 174.868 327.255 174.718 326.742 174.718C325.93 174.718 325.652 174.846 324.584 175.787C323.259 176.941 322.425 177.155 321.292 176.556C320.181 175.979 319.689 175.231 319.711 174.162C319.711 172.966 320.181 172.41 321.784 171.64C323.13 171.021 323.601 170.422 323.601 169.375C323.601 168.242 322.788 167.58 320.779 167.045C319.048 166.575 317.231 166.511 315.799 166.832Z" fill="#2C9A6E"/>
<path d="M386.223 166.789C385.924 166.896 385.155 167.088 384.514 167.238C382.098 167.793 379.448 169.653 377.674 172.047C375.9 174.462 375.323 176.3 375.323 179.613C375.323 182.37 375.558 183.502 376.584 185.725C377.503 187.713 380.175 190.384 382.184 191.346C386.416 193.377 391.31 193.056 395.157 190.534C398 188.675 399.688 186.345 400.564 183.118C401.719 178.758 400.116 174.718 397.188 174.718C396.461 174.718 396.14 174.889 395.114 175.787C394.153 176.62 393.725 176.855 393.169 176.855C391.225 176.855 389.728 175.231 390.156 173.585C390.327 172.88 391.481 171.769 392.229 171.619C393.169 171.405 394.131 170.23 394.131 169.268C394.131 168.819 393.063 167.665 392.443 167.409C390.519 166.661 387.57 166.361 386.223 166.789Z" fill="#2C9A6E"/>
<path d="M365.626 212.33C366.273 212.735 366.522 213.322 366.603 213.537C366.71 213.818 366.752 214.078 366.771 214.267C366.809 214.644 366.783 215.066 366.671 215.476L366.669 215.483L366.667 215.49C366.348 216.631 365.721 217.398 364.891 218.203L364.889 218.205C363.178 219.859 361.098 221.415 359.35 222.261L359.34 222.266C358.631 222.605 358.059 222.844 357.426 223.042L357.421 223.043L357.415 223.045C356.462 223.337 355.831 223.443 354.847 223.498C354.789 223.501 354.723 223.506 354.653 223.512C354.622 223.514 354.584 223.517 354.555 223.519C354.54 223.52 354.515 223.521 354.487 223.523C354.401 223.53 354.338 223.53 354.317 223.53C354.253 223.531 354.197 223.529 354.159 223.527C354.082 223.523 354.006 223.517 353.943 223.512C353.813 223.5 353.66 223.483 353.509 223.465C353.207 223.429 352.846 223.38 352.56 223.334L352.555 223.333L352.551 223.333C351.981 223.239 351.319 222.986 350.696 222.725C350.589 222.685 350.521 222.652 350.516 222.65C350.444 222.617 350.377 222.583 350.329 222.557C350.229 222.504 350.118 222.442 350.013 222.381C349.798 222.258 349.536 222.101 349.284 221.948C348.794 221.651 348.252 221.314 348.097 221.21L348.093 221.208L348.09 221.206C347.7 220.944 347.298 220.568 347 220.265C346.696 219.954 346.34 219.553 346.08 219.168C346.079 219.167 346.078 219.167 346.078 219.166C346.077 219.164 346.075 219.162 346.074 219.161C345.089 217.705 344.585 216.413 344.345 214.701L344.345 214.695L344.344 214.69C344.132 213.121 344.193 211.675 344.506 209.796L344.507 209.792C344.702 208.629 344.901 207.759 345.245 206.63L345.392 206.152C345.73 205.081 346.055 204.3 346.771 203.559C347.137 203.178 347.712 202.715 348.459 202.534C348.834 202.443 349.544 202.357 350.279 202.757C351.121 203.215 351.464 204.013 351.538 204.639L351.54 204.65L351.541 204.662C351.62 205.404 351.388 206.107 351.214 206.7C350.144 210.345 350.206 212.245 350.812 213.732C350.935 214.03 350.966 214.094 350.987 214.134C350.996 214.151 351.008 214.172 351.039 214.22L351.205 214.466L351.22 214.488L351.234 214.509C351.286 214.588 351.344 214.675 351.401 214.76C351.428 214.801 351.456 214.843 351.481 214.88C351.489 214.891 351.497 214.905 351.507 214.919C351.519 214.934 351.535 214.952 351.551 214.971C351.566 214.987 351.58 215.001 351.591 215.013C352.005 215.432 352.571 215.854 353.154 216.181C353.778 216.531 354.221 216.659 354.381 216.676C354.64 216.701 354.983 216.753 355.087 216.767L355.113 216.771L355.139 216.775C355.118 216.772 355.146 216.777 355.234 216.781C355.315 216.784 355.415 216.785 355.526 216.781C355.767 216.774 355.958 216.752 356.037 216.737L356.038 216.736C357.175 216.515 357.866 216.239 359.069 215.464C359.948 214.894 361.16 213.924 361.919 213.182C362.207 212.9 362.552 212.611 362.924 212.391C363.101 212.286 363.38 212.14 363.728 212.051C364.002 211.981 364.808 211.819 365.626 212.33Z" fill="#2C9A6E"/>
<path d="M409.096 108.461C415.447 105.651 423.701 104.491 431.883 105.206L432.276 105.242C433.495 105.361 434.442 105.491 435.144 105.81C435.988 106.193 436.397 106.799 436.695 107.493C436.891 107.937 437.024 108.343 436.996 108.978C436.974 109.487 436.845 110.169 436.649 111.188L436.648 111.194L436.647 111.199C435.271 118.008 431.268 124.769 425.395 130.324L425.395 130.325C422.301 133.249 419.333 135.29 415.518 137.07L415.518 137.069C411.587 138.917 407.265 140.047 402.682 140.403L402.682 140.402C401.083 140.527 399.555 140.56 398.409 140.506C397.844 140.48 397.328 140.431 396.931 140.348C396.742 140.308 396.507 140.247 396.293 140.139C396.176 140.079 395.551 139.751 395.55 138.995V138.995C395.55 138.826 395.587 138.692 395.603 138.64C395.622 138.572 395.645 138.513 395.663 138.469C395.7 138.381 395.744 138.292 395.785 138.212C395.87 138.05 395.983 137.854 396.111 137.643C396.369 137.217 396.718 136.674 397.097 136.106C397.848 134.98 398.758 133.693 399.344 132.978C400.857 131.131 404.283 127.688 406.327 125.98C410.26 122.678 413.21 120.942 421.514 117.029C421.885 116.852 422.17 116.693 422.383 116.55C422.234 116.542 422.071 116.538 421.895 116.537C421.008 116.532 419.961 116.619 419.19 116.79L419.186 116.79C415.082 117.682 412.644 118.598 409.021 120.615L409.018 120.617C405.898 122.341 402.658 125.057 399.926 128.102C397.187 131.154 395.027 134.459 393.995 137.324C393.014 140.06 392.728 141.363 392.616 143.547L392.596 143.996C392.563 144.839 392.545 145.447 392.573 145.919C392.602 146.395 392.673 146.597 392.727 146.689L393.706 148.38H382.027L383.279 146.604C383.336 146.524 383.364 146.48 383.39 146.3C383.427 146.046 383.439 145.634 383.429 144.819V144.814C383.409 142.341 383.127 140.71 382.285 138.147C379.938 131.017 374.821 124.821 367.581 120.454C367.165 120.206 366.736 119.96 366.381 119.765C366.203 119.666 366.048 119.583 365.925 119.52C365.863 119.489 365.814 119.464 365.776 119.446C365.734 119.427 365.72 119.421 365.725 119.423C365.418 119.305 364.577 118.926 363.855 118.585C362.654 118.042 360.381 117.331 357.897 116.79L357.895 116.79L357.893 116.789C357.177 116.63 356.112 116.542 355.157 116.542C354.857 116.542 354.582 116.551 354.343 116.567C354.501 116.668 354.695 116.778 354.928 116.891C355.411 117.122 357.408 118.099 359.36 119.044L359.362 119.044C366.372 122.453 372.02 126.751 376.187 131.852C376.443 132.159 376.685 132.451 376.866 132.67C376.958 132.781 377.032 132.871 377.088 132.937C377.118 132.973 377.137 132.994 377.146 133.005C377.412 133.264 377.744 133.721 378.04 134.148C378.388 134.65 378.785 135.262 379.16 135.866C379.534 136.468 379.893 137.075 380.162 137.567C380.296 137.811 380.415 138.042 380.504 138.236C380.548 138.332 380.592 138.436 380.628 138.539C380.65 138.603 380.72 138.802 380.72 139.035V139.037C380.719 139.722 380.193 140.047 380.062 140.121C379.871 140.229 379.669 140.287 379.526 140.322C379.223 140.395 378.842 140.44 378.446 140.469C377.637 140.529 376.555 140.538 375.403 140.507C373.118 140.445 370.383 140.22 368.765 139.849L368.763 139.849C362.894 138.492 357.324 135.819 352.949 132.227C351.091 130.708 347.861 127.376 346.349 125.446C342.759 120.88 340.205 115.532 339.333 110.645V110.645C339.193 109.854 339.103 109.14 339.123 108.519C339.143 107.887 339.28 107.254 339.681 106.71C340.083 106.164 340.649 105.85 341.246 105.652C341.83 105.458 342.531 105.346 343.313 105.263L343.319 105.262C345.789 105.011 352.457 104.99 354.858 105.243L354.858 105.243C359.635 105.741 363.863 106.823 367.649 108.526L368.088 108.726C377.268 112.977 383.513 119.838 387.455 129.926C387.707 130.556 387.955 131.155 388.171 131.656C388.275 131.412 388.394 131.123 388.529 130.782C392.528 120.539 399.502 112.841 408.658 108.658L409.096 108.461Z" fill="#2C9A6E"/>
</svg>
