<svg width="369" height="350" viewBox="0 0 369 350" fill="none" xmlns="http://www.w3.org/2000/svg">
<circle cx="175" cy="175" r="175" fill="#F6C14C"/>
<path d="M321.296 175C321.296 94.2028 255.797 28.7037 175 28.7037C94.2028 28.7037 28.7037 94.2028 28.7037 175C28.7037 255.797 94.2028 321.296 175 321.296V325C92.1573 325 25 257.843 25 175C25 92.1573 92.1573 25 175 25C257.843 25 325 92.1573 325 175C325 257.843 257.843 325 175 325V321.296C255.797 321.296 321.296 255.797 321.296 175Z" fill="white"/>
<path d="M258.85 257.534C265.381 257.534 275.772 256.064 281.662 254.314C294.783 250.434 308.409 242.041 317.162 232.446L317.575 231.988L317.585 231.976L317.596 231.965C319.321 230.008 321.687 227.087 323.608 224.61C324.571 223.368 325.458 222.192 326.118 221.269C326.442 220.817 326.753 220.367 326.999 219.977C327.117 219.79 327.273 219.534 327.417 219.252C327.488 219.115 327.601 218.885 327.708 218.599C327.722 218.562 327.748 218.492 327.78 218.394C327.787 218.384 327.793 218.373 327.8 218.362L327.97 218.108L327.985 218.086L328 218.065C329.92 215.318 332.059 210.838 333.796 206.56C335.435 202.524 336.942 198.11 337.642 194.772L337.771 194.12L337.779 194.076L337.787 194.031C337.985 192.842 338.326 191.113 338.582 189.977L338.686 189.529L338.708 189.435L338.728 189.339C339.055 187.7 339.449 183.254 339.597 179.358L339.717 176.883C343.923 176.521 348.103 175.438 350.606 171.633L350.614 171.621L350.622 171.609C353.691 166.887 353.41 159.942 349.431 155.704L349.396 155.667L349.361 155.631C348.025 154.263 346.462 152.957 343.969 152.274C341.937 151.717 339.525 151.661 336.767 151.661C335.87 151.661 335.157 151.653 334.583 151.636C334.375 151.104 334.123 150.506 333.843 149.876C333.136 148.28 332.16 146.244 331.043 144.033L331.031 144.011C327.632 137.369 320.736 128.049 315.502 123.184L315.502 123.184C310.241 118.27 307.957 116.402 303.518 113.527L303.519 113.527C297.897 109.812 292.235 106.753 287.669 104.977C286.851 104.655 286.036 104.335 285.338 104.059C284.992 103.922 284.692 103.801 284.451 103.703C284.33 103.653 284.232 103.613 284.154 103.58C284.116 103.564 284.085 103.551 284.063 103.541C284.051 103.536 284.042 103.532 284.036 103.529C284.031 103.527 284.028 103.526 284.028 103.526L284.008 103.517L283.989 103.508C282.111 102.673 278.387 101.741 274.958 101.003C271.35 100.227 267.281 99.5037 264.365 99.2093L264.355 99.2081L264.345 99.2074C254.066 98.211 241.512 99.8602 232.097 103.51C230.116 104.271 227.526 105.461 225.442 106.494C224.388 107.016 223.396 107.531 222.625 107.965C222.25 108.175 221.854 108.408 221.506 108.638C221.392 108.714 221.239 108.819 221.072 108.946C220.916 109.011 220.778 109.074 220.665 109.129C220.243 109.332 219.812 109.577 219.423 109.81C218.628 110.287 217.673 110.917 216.679 111.607C214.689 112.986 212.304 114.765 210.262 116.423C206.801 119.192 201.351 124.696 198.809 127.821L198.794 127.839L198.779 127.857C194.374 133.376 192.473 136.244 189.529 142.078L188.584 143.949C186.527 148.059 185.468 150.493 184.503 153.532L184.471 153.633L184.443 153.734C184.291 154.292 184.002 155.158 183.703 156.031H169.475L168.624 153.374L168.618 153.358L168.613 153.341C164.515 140.839 159.413 132.635 149.61 122.781L149.608 122.778C136.526 109.645 120.969 101.947 102.471 99.518L102.47 99.5186C95.7919 98.6321 91.8178 98.6415 84.461 99.5099C78.7772 100.176 72.2158 101.707 67.8834 103.474C67.5414 103.602 67.0627 103.789 66.645 103.952C66.1175 104.159 65.5732 104.369 65.1023 104.54L65.0573 104.557C46.38 111.548 28.4169 128.45 20.0497 146.952C19.4278 148.326 18.6753 150.068 18.1364 151.458C17.2794 151.506 16.3052 151.561 15.2578 151.621L7.19493 152.001L4.05763 155.052L4.05826 155.052C-0.598681 159.565 -1.56314 167 2.82483 172.248L2.85107 172.28L2.87794 172.311C4.01416 173.626 5.38713 174.983 7.53297 175.842C9.17768 176.5 10.9902 176.736 12.836 176.882C13.8433 203.214 24.5488 225.605 43.771 240.447L43.7747 240.45L43.7785 240.452C57.8855 251.304 75.6728 257.534 92.9694 257.534C107.421 257.534 121.277 253.627 134.022 246.093C134.637 245.731 135.282 245.324 135.842 244.946C136.133 244.749 136.599 244.429 137.048 244.061C137.058 244.057 137.068 244.054 137.077 244.051C137.476 243.901 137.814 243.729 138.066 243.587C138.503 243.341 138.926 243.05 139.3 242.744L139.458 242.612L139.607 242.484L139.701 242.39C139.718 242.375 139.773 242.326 139.88 242.236C140.05 242.093 140.281 241.903 140.562 241.679C140.982 241.343 141.483 240.952 142.003 240.559L142.526 240.166L142.558 240.143L142.591 240.118C144.115 238.949 146.538 236.718 148.434 234.83L149.21 234.046L149.232 234.024L149.253 234C156.168 226.731 161.269 219.68 164.982 211.556C168.569 203.709 170.755 195.09 172.184 184.674L172.32 183.66L172.321 183.648L172.323 183.637L172.349 183.427L176.566 183.356C178.527 183.339 180.185 183.341 181.506 183.365C181.541 183.766 181.574 184.2 181.602 184.664L181.603 184.682L181.604 184.701C181.803 187.634 182.209 191.195 182.517 192.737L182.532 192.812L182.55 192.887C183.162 195.532 183.802 198.193 184.33 200.263C184.593 201.292 184.838 202.21 185.042 202.918C185.142 203.267 185.246 203.614 185.348 203.916C185.399 204.065 185.465 204.252 185.545 204.447C185.58 204.535 185.714 204.87 185.947 205.262C185.966 205.307 185.994 205.369 186.026 205.45C186.153 205.768 186.307 206.201 186.446 206.635C187.52 210.072 189.215 213.67 191.915 218.678L191.934 218.713C194.132 222.715 199.575 229.603 203.967 233.995L203.972 234L203.978 234.006C212.523 242.499 218.687 246.623 230.748 251.994L230.751 251.996C234.31 253.578 239.284 254.941 244.218 255.909C249.184 256.883 254.507 257.534 258.85 257.534ZM219.416 110.897C219.423 110.883 219.431 110.869 219.438 110.856C219.431 110.87 219.425 110.884 219.418 110.898L219.416 110.897ZM259.112 232.83C247.697 232.785 240.278 230.586 230.99 224.453L230.971 224.442L230.953 224.429C224.653 220.348 217.833 213.297 214.696 207.828L214.69 207.817L214.683 207.806C210.451 200.513 209.165 197.03 207.068 186.687V186.685C206.874 185.731 206.697 182.369 206.703 178.342C206.709 174.576 206.874 171.337 207.073 170.077L207.114 169.851L207.118 169.834L207.121 169.816C208.326 163.744 208.614 162.508 209.667 159.394C210.69 156.41 212.336 152.762 214.415 148.907L214.838 148.132L214.838 148.13C215.363 147.175 217.052 144.906 219.261 142.294C221.409 139.755 223.576 137.448 224.839 136.355L225.575 135.734C233.123 129.437 239.385 126.373 249.515 123.963C249.569 123.954 249.82 123.915 250.355 123.87C250.916 123.822 251.635 123.779 252.481 123.742C254.171 123.668 256.251 123.626 258.367 123.62C262.826 123.608 266.678 123.76 267.712 123.946C279.5 126.268 290.43 132.235 299.023 141.128C300.569 142.765 304.696 147.921 305.678 149.492L305.702 149.532C308.969 154.652 312.373 162.964 313.604 168.765L313.605 168.776L313.608 168.787C314.095 171.036 314.294 175.474 314.103 180.273C313.911 185.106 313.363 189.285 312.772 191.119C312.46 192.023 312.009 193.588 311.698 194.696C309.859 201.136 304.493 209.778 297.993 216.326C286.682 227.682 274.288 232.874 259.112 232.83ZM93.6398 232.873C89.4545 232.915 85.5293 232.725 83.515 232.374C72.9042 230.486 63.2502 225.312 54.6938 216.756C44.1815 206.244 39.3485 195.234 38.8592 180.687L38.8585 180.681V180.674C38.4997 170.761 39.7897 164.383 44.059 155.26L44.0665 155.245L44.0734 155.23C47.3725 148.06 54.079 139.705 59.9899 135.229L60.0311 135.197L60.0717 135.166C60.5071 134.822 60.9991 134.436 61.3845 134.123C61.5775 133.967 61.7894 133.792 61.9806 133.625C62.0756 133.541 62.1977 133.432 62.3249 133.308C62.3565 133.277 62.4096 133.223 62.4786 133.151C62.5318 133.111 62.6747 133.002 62.9466 132.819C63.4301 132.495 64.1054 132.077 64.9361 131.595C66.5884 130.636 68.6825 129.525 70.7433 128.54C74.7929 126.619 78.921 125.204 83.6568 124.18L84.6122 123.98L84.6178 123.979C85.6821 123.763 89.1001 123.595 93.2099 123.626C97.2368 123.656 100.863 123.869 102.284 124.133C104.137 124.5 106.226 124.984 108.011 125.451C108.905 125.684 109.694 125.906 110.32 126.098C110.633 126.194 110.887 126.277 111.082 126.345C111.245 126.403 111.33 126.436 111.355 126.447C111.883 126.687 113.825 127.587 115.633 128.444L115.674 128.463L115.715 128.481C119.307 130.106 122.447 132.087 126.795 135.51L126.81 135.521C133.751 140.944 138.345 147.127 143.198 158.036L143.206 158.055L143.215 158.073C144.145 160.118 145.513 165.167 146.26 170.118L146.263 170.136L146.265 170.154C149.053 187.765 142.287 206.808 129.111 218.657C121.251 225.707 112.922 230.036 103.202 232.217C101.548 232.562 97.8436 232.831 93.6398 232.873Z" fill="#2C9A6E"/>
<path d="M93.5522 151.003C83.843 153.285 77.7262 157.46 73.26 164.742C69.9103 170.13 68.8423 174.985 69.1821 182.995C69.4249 187.753 69.6676 189.112 70.9298 192.122C73.26 197.802 76.2213 201.297 81.5128 204.695C88.5034 209.258 97.3387 210.86 105.058 209.016C114.427 206.734 123.505 198.287 125.981 189.403C126.758 186.539 126.952 179.208 126.272 176.733C125.544 174.063 123.456 170.859 121.757 169.742C121.078 169.257 119.573 168.917 118.408 168.917C116.563 168.917 115.932 169.208 113.505 171.344C110.495 173.966 108.601 174.451 106.028 173.092C103.504 171.781 102.388 170.082 102.436 167.655C102.436 164.936 103.504 163.674 107.145 161.926C110.203 160.518 111.271 159.159 111.271 156.78C111.271 154.207 109.427 152.702 104.863 151.489C100.931 150.421 96.8047 150.275 93.5522 151.003Z" fill="#2C9A6E"/>
<path d="M253.511 150.906C252.832 151.149 251.084 151.586 249.628 151.926C244.142 153.188 238.122 157.411 234.093 162.848C230.064 168.334 228.753 172.509 228.753 180.034C228.753 186.296 229.287 188.869 231.617 193.918C233.705 198.433 239.773 204.501 244.336 206.685C253.948 211.297 265.065 210.569 273.804 204.841C280.26 200.617 284.095 195.326 286.086 187.995C288.707 178.092 285.066 168.917 278.415 168.917C276.765 168.917 276.037 169.305 273.706 171.344C271.522 173.237 270.551 173.771 269.289 173.771C264.871 173.771 261.473 170.082 262.444 166.344C262.832 164.742 265.454 162.217 267.153 161.878C269.289 161.392 271.473 158.722 271.473 156.538C271.473 155.518 269.046 152.897 267.638 152.314C263.269 150.615 256.57 149.935 253.511 150.906Z" fill="#2C9A6E"/>
<path d="M204.166 254.349C205.637 255.268 206.202 256.602 206.387 257.09C206.628 257.729 206.725 258.319 206.768 258.749C206.854 259.604 206.795 260.564 206.54 261.495L206.536 261.511L206.532 261.526C205.806 264.117 204.383 265.86 202.497 267.688L202.492 267.693C198.606 271.449 193.881 274.983 189.91 276.907L189.889 276.917C188.279 277.688 186.979 278.229 185.542 278.679L185.529 278.683L185.515 278.687C183.352 279.351 181.918 279.591 179.684 279.715C179.553 279.723 179.401 279.735 179.243 279.746C179.173 279.752 179.087 279.758 179.02 279.763C178.987 279.765 178.93 279.768 178.866 279.772C178.67 279.787 178.527 279.789 178.479 279.789C178.333 279.79 178.207 279.785 178.121 279.781C177.946 279.773 177.773 279.759 177.63 279.747C177.334 279.721 176.988 279.682 176.645 279.641C175.957 279.559 175.138 279.447 174.49 279.343L174.478 279.341L174.468 279.34C173.173 279.126 171.671 278.553 170.254 277.96C170.012 277.87 169.857 277.795 169.846 277.79C169.681 277.714 169.531 277.636 169.421 277.579C169.194 277.459 168.942 277.317 168.703 277.179C168.215 276.898 167.62 276.543 167.046 276.195C165.933 275.52 164.705 274.754 164.351 274.519L164.343 274.513L164.336 274.509C163.45 273.915 162.536 273.061 161.861 272.372C161.168 271.665 160.36 270.755 159.769 269.88C159.768 269.878 159.766 269.877 159.765 269.875C159.763 269.871 159.76 269.868 159.757 269.864C157.518 266.558 156.374 263.623 155.83 259.734L155.828 259.721L155.826 259.708C155.346 256.144 155.484 252.861 156.195 248.592L156.196 248.584C156.641 245.943 157.092 243.966 157.874 241.402L158.208 240.317C158.976 237.883 159.713 236.11 161.339 234.426C162.17 233.561 163.476 232.51 165.174 232.098C166.025 231.891 167.639 231.696 169.307 232.604C171.221 233.646 172 235.458 172.167 236.878L172.171 236.905L172.173 236.931C172.354 238.617 171.827 240.213 171.431 241.56C169.001 249.84 169.141 254.157 170.519 257.533C170.797 258.21 170.867 258.356 170.916 258.447C170.936 258.485 170.964 258.533 171.034 258.642L171.411 259.201L171.444 259.249L171.476 259.298C171.594 259.478 171.726 259.674 171.855 259.868C171.917 259.96 171.982 260.056 172.037 260.14C172.055 260.167 172.075 260.197 172.096 260.23C172.125 260.264 172.159 260.305 172.197 260.347C172.23 260.384 172.262 260.416 172.287 260.443C173.229 261.393 174.513 262.353 175.837 263.095C177.256 263.89 178.262 264.181 178.624 264.22C179.214 264.277 179.992 264.394 180.228 264.428L180.288 264.436L180.347 264.446C180.299 264.438 180.362 264.45 180.563 264.458C180.746 264.466 180.974 264.467 181.227 264.459C181.774 264.443 182.206 264.392 182.385 264.358L182.388 264.357C184.972 263.854 186.54 263.227 189.273 261.467C191.27 260.173 194.023 257.97 195.746 256.285C196.402 255.643 197.184 254.986 198.029 254.487C198.432 254.249 199.066 253.917 199.855 253.715C200.477 253.555 202.308 253.188 204.166 254.349Z" fill="#2C9A6E"/>
<path d="M305.464 15.8617C319.89 9.47768 338.639 6.84441 357.223 8.46801L358.115 8.54924C360.885 8.8192 363.036 9.11538 364.63 9.83891C366.548 10.71 367.477 12.0862 368.153 13.6623C368.598 14.6708 368.9 15.5928 368.837 17.0352C368.786 18.1918 368.494 19.7412 368.048 22.0563L368.046 22.0682L368.043 22.0795C364.918 37.5455 355.826 52.9038 342.487 65.5219L342.486 65.5231C335.458 72.1652 328.718 76.7998 320.052 80.8429L320.052 80.8423C311.123 85.0392 301.305 87.6061 290.896 88.4134L290.896 88.4128C287.263 88.6955 283.793 88.7705 281.191 88.649C279.908 88.5891 278.736 88.4775 277.833 88.2891C277.404 88.1996 276.871 88.0602 276.385 87.8136C276.117 87.6779 274.698 86.9345 274.697 85.2167V85.2155C274.697 84.8316 274.781 84.5279 274.816 84.4101C274.861 84.2555 274.913 84.1203 274.954 84.0208C275.036 83.8208 275.136 83.6189 275.23 83.4385C275.423 83.0701 275.681 82.6248 275.971 82.145C276.557 81.1767 277.35 79.9437 278.21 78.6547C279.917 76.0971 281.984 73.1727 283.314 71.5484C286.749 67.3535 294.533 59.5328 299.174 55.6532C308.108 48.1527 314.81 44.2108 333.671 35.3216C334.513 34.921 335.16 34.5585 335.645 34.2344C335.307 34.2172 334.935 34.2066 334.536 34.2044C332.521 34.1936 330.143 34.3925 328.391 34.7793L328.383 34.7805C319.062 36.8048 313.524 38.8857 305.294 43.4689L305.287 43.4733C298.2 47.3893 290.842 53.5574 284.635 60.4744C278.415 67.4055 273.509 74.9129 271.163 81.4215C268.937 87.6345 268.286 90.5943 268.033 95.5553L267.987 96.5763C267.912 98.4898 267.87 99.8703 267.934 100.943C267.999 102.024 268.162 102.484 268.283 102.692L270.509 106.534H243.98L246.825 102.5C246.953 102.317 247.017 102.218 247.076 101.808C247.159 101.231 247.186 100.296 247.164 98.4452V98.4345C247.12 92.8174 246.478 89.1107 244.566 83.291C239.235 67.0943 227.613 53.0222 211.168 43.1015C210.223 42.5396 209.248 41.9801 208.442 41.5363C208.037 41.3129 207.684 41.1242 207.406 40.9814C207.266 40.91 207.154 40.8542 207.067 40.8133C206.973 40.7689 206.941 40.7565 206.952 40.7608C206.253 40.4923 204.344 39.6305 202.703 38.857C199.977 37.6231 194.814 36.0078 189.172 34.7805L189.166 34.7793L189.161 34.778C187.536 34.4172 185.116 34.2163 182.948 34.2163C182.267 34.2163 181.641 34.2359 181.099 34.2725C181.459 34.5033 181.899 34.7517 182.428 35.0092C183.525 35.534 188.06 37.7525 192.493 39.8986L192.498 39.9004C208.421 47.6434 221.25 57.4045 230.716 68.9922C231.297 69.6886 231.845 70.3527 232.257 70.8499C232.465 71.1008 232.636 71.3062 232.762 71.456C232.831 71.5383 232.872 71.5866 232.893 71.6103C233.497 72.1983 234.252 73.2375 234.923 74.2065C235.714 75.3478 236.617 76.7376 237.468 78.108C238.317 79.4767 239.133 80.8554 239.744 81.9732C240.047 82.5277 240.318 83.0513 240.52 83.4928C240.62 83.7109 240.721 83.9474 240.801 84.1795C240.853 84.3269 241.011 84.7782 241.011 85.308V85.3123C241.009 86.8673 239.814 87.6047 239.517 87.773C239.082 88.0194 238.623 88.1516 238.3 88.2297C237.611 88.3962 236.746 88.4976 235.847 88.564C234.008 88.6998 231.55 88.7206 228.934 88.6502C223.743 88.5105 217.531 87.9988 213.857 87.1556L213.853 87.155C200.52 84.0737 187.869 78.0032 177.933 69.8439C173.712 66.3935 166.375 58.8257 162.94 54.4416C154.787 44.0688 148.986 31.9218 147.006 20.8223V20.821C146.686 19.0244 146.482 17.4035 146.528 15.9923C146.574 14.5581 146.884 13.119 147.795 11.8846C148.71 10.645 149.993 9.93157 151.349 9.48087C152.677 9.03943 154.269 8.78665 156.045 8.59736L156.058 8.59611C161.67 8.02595 176.814 7.97752 182.269 8.55112L182.268 8.55174C193.12 9.6832 202.722 12.1417 211.322 16.0079L212.32 16.4634C233.171 26.1186 247.356 41.7032 256.309 64.6177C256.882 66.0489 257.445 67.4074 257.936 68.5473C258.172 67.9912 258.442 67.3349 258.749 66.5622C267.832 43.2954 283.672 25.8095 304.47 16.3085L305.464 15.8617Z" fill="#2C9A6E"/>
</svg>
