<svg width="437" height="204" viewBox="0 0 437 204" fill="none" xmlns="http://www.w3.org/2000/svg">
<ellipse cx="219" cy="102" rx="176" ry="102" fill="#F6C14C"/>
<path d="M24.1895 44.6196C11.119 47.6619 3.62606 54.1408 0.752806 64.8451C-0.148606 68.2817 -0.261283 77.0141 0.527453 79.9437C1.31619 82.7607 3.28803 85.5212 5.5979 87.0987C8.07678 88.7325 12.9219 90.141 15.4571 89.9156L17.4289 89.7466L15.7388 87.2114C11.4007 80.6761 11.1754 64.7324 15.2881 58.8732C16.5839 57.0704 18.6684 55.8873 21.8796 55.1549L24.1895 54.6479V97.6903V140.733H33.767H43.3445V116.507V92.2818H52.922H62.4995V87.2114V82.1409H52.922H43.3445V69.6902V57.2394L44.922 57.5774C49.9924 58.6479 56.8094 59.6056 59.0629 59.6056C66.4432 59.6056 69.7672 56.169 70.6686 47.5492L71.1193 43.7182L68.6404 44.1689C65.8235 44.7323 56.4713 44.7323 39.1192 44.2253C30.3304 43.9436 26.4994 44.0563 24.1895 44.6196Z" fill="#2C9A6E"/>
<path d="M258.558 51.3802L250.389 52.5633L250.107 86.9297C249.769 120.902 249.769 121.352 248.53 124.733C247.008 128.845 244.079 132.451 241.037 133.972C239.854 134.592 238.727 135.099 238.558 135.099C238.389 135.099 238.276 121.803 238.276 105.521V75.9437H228.699H219.121V77.9719V80.0001L216.755 77.9719C213.994 75.6057 212.135 75.155 205.994 75.493C202.558 75.662 200.529 76.1127 198.107 77.2395C191.459 80.2818 185.881 88.1128 183.572 97.6903C182.05 104 181.825 115.606 183.177 120.507C183.966 123.381 183.966 123.831 183.121 125.183C181.093 128.507 174.783 129.521 172.304 126.874L170.952 125.409L170.783 100.676L170.614 75.9437H161.093H151.515V97.7466C151.515 111.944 151.29 120.395 150.895 121.859C150.557 123.099 149.318 125.014 148.079 126.254C146.163 128.169 145.656 128.395 143.571 128.226C141.769 128.113 140.924 127.719 140.022 126.479C138.895 124.902 138.839 124.226 138.67 100.395L138.501 75.9437H128.98H119.402V99.1551C119.402 111.944 119.684 124.169 119.966 126.254C120.642 131.043 122.952 135.831 125.543 137.972C128.698 140.564 132.247 141.465 138.219 141.183C142.557 141.014 143.797 140.733 145.938 139.493C148.867 137.747 152.417 134.028 153.431 131.606L154.163 129.972L155.177 132.62C156.473 136.057 160.135 139.719 163.121 140.62C166.332 141.578 173.262 141.465 176.642 140.451C180.248 139.324 184.191 136.395 186.22 133.296L187.797 130.817L189.938 132.958C192.473 135.493 196.417 137.578 200.417 138.423C207.121 139.831 211.853 138.592 216.191 134.254L219.121 131.324V136.057C219.121 140.057 218.952 140.789 218.163 141.071C215.572 141.916 209.036 145.352 207.29 146.817C200.529 152.451 200.135 162.761 206.501 168.338C210.332 171.662 213.037 172.564 219.684 172.564C224.53 172.564 226.051 172.338 228.135 171.381C235.234 168.057 238.276 161.014 238.276 147.719V142.029L242.445 139.944C245.262 138.592 247.459 136.958 249.149 135.099C251.797 132.113 252.361 131.775 252.361 133.071C252.361 133.465 253.375 134.986 254.614 136.395C258.051 140.282 261.713 141.465 268.98 141.183C275.685 140.845 278.671 139.662 282.445 135.831C286.445 131.775 290.107 123.55 290.107 118.535C290.107 117.183 289.938 117.071 287.347 117.071C284.586 117.071 284.586 117.071 284.192 119.212C283.347 124.282 279.403 128.338 275.403 128.338C272.417 128.338 270.558 127.324 269.825 125.352C269.487 124.226 269.262 111.099 269.262 86.8733V50.0281L268.023 50.0844C267.29 50.1408 263.065 50.7042 258.558 51.3802ZM216.36 84.3945C218.839 85.7466 219.121 87.4367 219.121 102.535C219.121 111.211 218.896 117.69 218.501 119.042C217.656 122.085 214.22 125.296 211.346 125.803C207.628 126.423 205.262 125.014 203.459 121.183C201.994 118.028 201.938 117.578 201.938 108.62C201.938 101.24 202.163 98.648 203.008 95.9438C205.375 88.1128 208.924 83.8311 212.98 83.8311C214.22 83.8311 215.741 84.1128 216.36 84.3945ZM219.121 151.268C219.065 157.803 217.318 161.747 214.22 162.029C213.037 162.141 211.966 161.747 210.896 160.845C208.642 158.874 208.698 155.493 211.008 153.014C212.529 151.437 217.713 148.057 218.727 148.057C218.952 148.057 219.121 149.521 219.121 151.268Z" fill="#2C9A6E"/>
<path d="M98.6676 76.2254C97.6535 76.6761 95.2873 78.4789 93.4845 80.2254L90.1042 83.4367V79.7184V75.9437H80.5267H70.9492V108.338V140.733H80.5267H90.1042V116.282V91.8874L92.5831 89.5776C95.1183 87.2114 97.3155 86.2536 98.8366 86.817C99.2874 87.0424 100.301 88.3945 101.034 89.9719C102.893 93.5776 104.301 94.5353 107.851 94.5353C112.583 94.5353 114.893 91.9438 114.893 86.5353C114.893 82.9297 113.316 79.9437 110.217 77.4085C108.358 75.9437 107.513 75.662 104.301 75.5493C101.823 75.4367 99.8507 75.662 98.6676 76.2254Z" fill="#2C9A6E"/>
<path fill-rule="evenodd" clip-rule="evenodd" d="M398.617 139.315C396.024 140.085 391.449 140.733 388.574 140.733C386.662 140.733 384.318 140.446 382.132 140.017C379.96 139.591 377.769 138.99 376.202 138.294C370.892 135.929 368.178 134.113 364.416 130.374L364.414 130.372L364.411 130.37C362.478 128.436 360.082 125.403 359.114 123.641L359.106 123.626C357.917 121.421 357.17 119.837 356.697 118.324C356.637 118.133 356.569 117.942 356.513 117.802C356.502 117.776 356.493 117.754 356.485 117.737C356.483 117.731 356.48 117.725 356.478 117.72C356.378 117.552 356.32 117.408 356.302 117.364L356.301 117.361C356.266 117.275 356.236 117.193 356.214 117.127C356.169 116.994 356.123 116.841 356.079 116.688C355.989 116.376 355.882 115.972 355.766 115.519C355.534 114.607 355.252 113.436 354.982 112.271L354.975 112.238L354.968 112.205C354.832 111.527 354.654 109.958 354.566 108.667L354.565 108.659L354.565 108.651C354.553 108.447 354.538 108.256 354.523 108.079C353.941 108.069 353.211 108.068 352.348 108.075L350.491 108.107L350.48 108.199L350.479 108.204L350.478 108.209L350.419 108.655C349.79 113.241 348.827 117.036 347.248 120.491C345.613 124.067 343.367 127.171 340.323 130.372L340.314 130.382L340.304 130.392L339.962 130.737C339.128 131.568 338.061 132.551 337.39 133.065L337.376 133.076L337.362 133.086L337.131 133.259C336.902 133.432 336.682 133.604 336.497 133.752C336.373 133.851 336.271 133.935 336.197 133.997C336.15 134.037 336.125 134.059 336.118 134.065L336.076 134.107L336.011 134.163L335.941 134.221C335.776 134.356 335.59 134.484 335.398 134.592C335.287 134.655 335.138 134.731 334.963 134.797C334.961 134.797 334.958 134.798 334.956 134.799C334.954 134.799 334.952 134.8 334.95 134.801C334.752 134.963 334.547 135.104 334.419 135.191C334.172 135.357 333.888 135.536 333.618 135.696C328.007 139.013 321.906 140.733 315.544 140.733C307.929 140.733 300.098 137.99 293.887 133.212L293.884 133.21C285.421 126.676 281.254 115.987 280.811 104.394C281.092 98.7606 281.656 97.2113 282.598 94.0317C282.835 93.42 283.167 92.6532 283.44 92.048C287.124 83.9026 295.032 76.461 303.255 73.3832L303.275 73.376C303.482 73.3006 303.722 73.2079 303.954 73.1172L303.997 73.1004C304.17 73.0327 304.361 72.9584 304.5 72.9065C306.407 72.1288 309.296 71.4544 311.798 71.1613C315.037 70.779 316.787 70.7746 319.727 71.1649C327.871 72.2341 334.721 75.6244 340.48 81.4064C344.796 85.7448 347.043 89.357 348.847 94.8608L348.849 94.8682L348.851 94.8754L349.226 96.045H355.49C355.622 95.661 355.749 95.2793 355.816 95.0341L355.828 94.9892L355.842 94.9449C356.267 93.6071 356.733 92.5354 357.639 90.7259L358.055 89.9023C359.351 87.3338 360.188 86.0712 362.127 83.6415L362.134 83.6333L362.141 83.6253C363.26 82.2498 365.659 79.8265 367.183 78.6074C368.082 77.8777 369.132 77.0945 370.008 76.487C370.446 76.1836 370.866 75.9059 371.216 75.6959C371.387 75.5932 371.577 75.4855 371.763 75.396C371.813 75.3719 371.873 75.3442 371.942 75.3154C372.016 75.2596 372.083 75.2134 372.133 75.1801C372.286 75.0788 372.46 74.9763 372.626 74.8835C372.965 74.6925 373.402 74.4657 373.866 74.236C374.783 73.7813 375.924 73.2573 376.796 72.9224C380.941 71.3155 386.468 70.5895 390.993 71.0281L390.997 71.0284L391.002 71.029C392.286 71.1586 394.077 71.477 395.666 71.8187C397.175 72.1435 398.815 72.5541 399.642 72.9216L399.65 72.9254L399.659 72.9293C399.659 72.9293 399.66 72.93 399.662 72.9309C399.664 72.9315 399.665 72.9322 399.667 72.9331C399.669 72.934 399.671 72.935 399.674 72.9362C399.68 72.939 399.688 72.9423 399.698 72.9461L399.714 72.9532C399.749 72.9676 399.792 72.9855 399.845 73.0071C399.951 73.0504 400.083 73.1035 400.235 73.1639C400.441 73.2455 400.67 73.3355 400.907 73.4286C401.024 73.4746 401.143 73.5214 401.262 73.5683C403.272 74.3501 405.764 75.6973 408.239 77.3326C410.194 78.5982 411.199 79.4209 413.515 81.5841C415.82 83.7258 418.856 87.8291 420.352 90.7531L420.357 90.763C420.849 91.7361 421.279 92.6325 421.59 93.3354C421.713 93.6129 421.824 93.8759 421.916 94.1101C422.169 94.1179 422.483 94.1213 422.878 94.1213C424.092 94.1213 425.154 94.146 426.048 94.3912C427.146 94.692 427.834 95.2666 428.422 95.869L428.438 95.8849L428.453 95.9012C430.205 97.7671 430.329 100.825 428.977 102.904L428.974 102.909L428.97 102.914C427.868 104.589 426.028 105.066 424.176 105.226L424.124 106.315C424.058 108.03 423.885 109.988 423.741 110.709L423.732 110.751L423.722 110.793L423.677 110.99C423.564 111.49 423.414 112.252 423.326 112.775L423.323 112.795L423.32 112.814L423.263 113.101C422.955 114.571 422.291 116.514 421.57 118.291C420.805 120.174 419.863 122.147 419.018 123.356L419.011 123.366L419.005 123.375L418.93 123.487C418.928 123.489 418.927 123.492 418.925 123.495C418.924 123.497 418.922 123.499 418.921 123.501C418.907 123.544 418.895 123.575 418.889 123.591C418.842 123.717 418.792 123.819 418.761 123.879C418.698 124.003 418.629 124.116 418.577 124.198C418.469 124.37 418.332 124.568 418.189 124.767C417.899 125.173 417.508 125.691 417.084 126.238C416.239 127.328 415.197 128.614 414.437 129.476L414.433 129.48L414.428 129.486L414.246 129.687C410.393 133.912 404.394 137.607 398.617 139.315ZM376.309 126.169C380.397 128.869 383.664 129.837 388.689 129.857C395.371 129.876 400.827 127.59 405.807 122.591C408.669 119.708 411.031 115.903 411.841 113.068C411.978 112.58 412.176 111.891 412.314 111.493C412.574 110.686 412.815 108.846 412.899 106.718C412.983 104.605 412.896 102.651 412.682 101.661L412.681 101.656L412.68 101.651C412.138 99.0976 410.639 95.4381 409.201 93.1841L409.19 93.1665C408.758 92.4749 406.941 90.2046 406.26 89.4842C402.478 85.5686 397.665 82.9417 392.476 81.9195C392.02 81.8378 390.324 81.7707 388.362 81.7762C387.43 81.7788 386.514 81.7971 385.77 81.8295C385.398 81.8458 385.081 81.8648 384.834 81.8859C384.599 81.906 384.488 81.9232 384.464 81.9269C380.004 82.9878 377.248 84.3369 373.925 87.109L373.601 87.3825C373.044 87.8637 372.09 88.8795 371.145 89.9972C370.172 91.1471 369.428 92.1469 369.197 92.5674L369.011 92.9087C368.096 94.6058 367.371 96.2122 366.921 97.5256C366.457 98.8966 366.331 99.4408 365.8 102.114L365.798 102.122L365.797 102.13L365.779 102.229C365.691 102.784 365.619 104.21 365.616 105.868C365.613 107.641 365.691 109.121 365.777 109.542C366.7 114.095 367.266 115.629 369.129 118.839L369.132 118.844L369.135 118.849C370.516 121.257 373.519 124.361 376.292 126.158L376.3 126.163L376.309 126.169ZM311.381 129.656C312.268 129.81 313.996 129.894 315.839 129.876C317.69 129.857 319.321 129.739 320.049 129.587C324.328 128.626 327.995 126.72 331.456 123.617C337.256 118.4 340.235 110.016 339.008 102.263L339.007 102.255L339.005 102.247C338.676 100.068 338.074 97.8445 337.665 96.944L337.661 96.936L337.657 96.9278C335.521 92.1253 333.498 89.403 330.442 87.0155L330.436 87.0106C328.522 85.5036 327.139 84.6315 325.558 83.9161L325.54 83.9081L325.522 83.8996C324.726 83.5223 323.871 83.1263 323.638 83.0204C323.634 83.0186 323.626 83.0153 323.613 83.0105C323.593 83.0028 323.562 82.9913 323.518 82.9758C323.432 82.9458 323.321 82.9091 323.183 82.8669C322.907 82.7823 322.56 82.6847 322.166 82.5819C321.38 82.3766 320.46 82.1633 319.645 82.002C319.019 81.8855 317.423 81.792 315.65 81.7786C313.84 81.765 312.333 81.8395 311.864 81.9346L311.444 82.0226C309.359 82.4734 307.541 83.0964 305.759 83.9419C304.851 84.3756 303.929 84.8648 303.202 85.2868C302.836 85.499 302.539 85.6831 302.326 85.826C302.206 85.9064 302.143 85.9543 302.12 85.9721C302.09 86.0037 302.066 86.0276 302.052 86.0411C301.996 86.0957 301.943 86.144 301.901 86.1806C301.817 86.2544 301.723 86.3313 301.638 86.4001C301.498 86.5135 301.327 86.649 301.163 86.7779C301.128 86.8053 301.094 86.8324 301.06 86.859L301.042 86.873L301.024 86.8868C298.422 88.8577 295.469 92.536 294.017 95.6926L294.014 95.6992L294.011 95.7058C292.131 99.7223 291.563 102.53 291.721 106.894L291.721 106.9C291.937 113.304 294.065 118.152 298.693 122.78C302.46 126.547 306.71 128.825 311.381 129.656Z" fill="#2C9A6E"/>
<path d="M315.8 93.8316C311.526 94.8361 308.833 96.6742 306.867 99.8801C305.392 102.252 304.922 104.39 305.071 107.916C305.178 110.011 305.285 110.609 305.841 111.934C306.867 114.435 308.17 115.974 310.5 117.47C313.578 119.479 317.468 120.184 320.866 119.372C324.991 118.367 328.987 114.649 330.077 110.737C330.419 109.476 330.505 106.249 330.206 105.159C329.885 103.984 328.966 102.573 328.218 102.081C327.919 101.868 327.256 101.718 326.743 101.718C325.931 101.718 325.653 101.846 324.585 102.787C323.26 103.941 322.426 104.155 321.293 103.556C320.182 102.979 319.69 102.231 319.712 101.162C319.712 99.9656 320.182 99.4099 321.785 98.6405C323.131 98.0206 323.601 97.4222 323.601 96.3749C323.601 95.2422 322.789 94.5796 320.78 94.0453C319.049 93.5751 317.232 93.511 315.8 93.8316Z" fill="#2C9A6E"/>
<path d="M386.224 93.7889C385.925 93.8958 385.156 94.0881 384.514 94.2377C382.099 94.7934 379.449 96.6528 377.675 99.0466C375.901 101.462 375.324 103.3 375.324 106.613C375.324 109.37 375.559 110.502 376.585 112.725C377.504 114.713 380.176 117.384 382.185 118.346C386.417 120.377 391.311 120.056 395.158 117.534C398.001 115.675 399.689 113.345 400.565 110.118C401.719 105.758 400.117 101.718 397.188 101.718C396.462 101.718 396.141 101.889 395.115 102.787C394.154 103.62 393.726 103.855 393.17 103.855C391.226 103.855 389.729 102.231 390.157 100.585C390.328 99.8801 391.482 98.7687 392.23 98.6191C393.17 98.4054 394.132 97.2299 394.132 96.2681C394.132 95.8193 393.064 94.6652 392.444 94.4087C390.52 93.6607 387.571 93.3614 386.224 93.7889Z" fill="#2C9A6E"/>
<path d="M365.628 139.33C366.275 139.735 366.524 140.322 366.605 140.537C366.712 140.818 366.754 141.078 366.773 141.267C366.811 141.644 366.785 142.066 366.673 142.476L366.671 142.483L366.669 142.49C366.35 143.631 365.723 144.398 364.893 145.203L364.891 145.205C363.18 146.859 361.1 148.415 359.351 149.261L359.342 149.266C358.633 149.605 358.061 149.844 357.428 150.042L357.422 150.043L357.417 150.045C356.464 150.337 355.833 150.443 354.849 150.498C354.791 150.501 354.725 150.506 354.655 150.512C354.624 150.514 354.586 150.517 354.557 150.519C354.542 150.52 354.517 150.521 354.489 150.523C354.403 150.53 354.34 150.53 354.319 150.53C354.255 150.531 354.199 150.529 354.161 150.527C354.084 150.523 354.008 150.517 353.945 150.512C353.815 150.5 353.662 150.483 353.511 150.465C353.209 150.429 352.848 150.38 352.562 150.334L352.557 150.333L352.553 150.333C351.983 150.239 351.321 149.986 350.698 149.725C350.591 149.685 350.523 149.652 350.518 149.65C350.445 149.617 350.379 149.583 350.331 149.557C350.231 149.504 350.12 149.442 350.015 149.381C349.8 149.258 349.538 149.101 349.285 148.948C348.795 148.651 348.254 148.314 348.099 148.21L348.095 148.208L348.092 148.206C347.702 147.944 347.3 147.568 347.002 147.265C346.698 146.954 346.342 146.553 346.081 146.168C346.081 146.167 346.08 146.167 346.08 146.166C346.079 146.164 346.077 146.162 346.076 146.161C345.091 144.705 344.587 143.413 344.347 141.701L344.347 141.695L344.346 141.69C344.134 140.121 344.195 138.675 344.508 136.796L344.509 136.792C344.704 135.629 344.903 134.759 345.247 133.63L345.394 133.152C345.732 132.081 346.057 131.3 346.773 130.559C347.139 130.178 347.714 129.715 348.461 129.534C348.836 129.443 349.546 129.357 350.281 129.757C351.123 130.215 351.466 131.013 351.54 131.639L351.541 131.65L351.543 131.662C351.622 132.404 351.39 133.107 351.216 133.7C350.146 137.345 350.208 139.245 350.814 140.732C350.937 141.03 350.968 141.094 350.989 141.134C350.998 141.151 351.01 141.172 351.041 141.22L351.207 141.466L351.222 141.488L351.235 141.509C351.288 141.588 351.346 141.675 351.403 141.76C351.43 141.801 351.458 141.843 351.483 141.88C351.491 141.891 351.499 141.905 351.509 141.919C351.521 141.934 351.536 141.952 351.553 141.971C351.568 141.987 351.581 142.001 351.593 142.013C352.007 142.432 352.573 142.854 353.156 143.181C353.78 143.531 354.223 143.659 354.383 143.676C354.642 143.701 354.985 143.753 355.089 143.767L355.115 143.771L355.141 143.775C355.12 143.772 355.148 143.777 355.236 143.781C355.317 143.784 355.417 143.785 355.528 143.781C355.769 143.774 355.96 143.752 356.038 143.737L356.04 143.736C357.177 143.515 357.868 143.239 359.071 142.464C359.95 141.894 361.162 140.924 361.921 140.182C362.209 139.9 362.554 139.611 362.926 139.391C363.103 139.286 363.382 139.14 363.729 139.051C364.004 138.981 364.81 138.819 365.628 139.33Z" fill="#2C9A6E"/>
<path d="M409.097 35.4612C415.448 32.6506 423.702 31.4912 431.884 32.206L432.277 32.2418C433.496 32.3607 434.443 32.4911 435.145 32.8096C435.989 33.1931 436.398 33.799 436.696 34.4929C436.892 34.9369 437.025 35.3428 436.997 35.9778C436.975 36.487 436.846 37.1691 436.65 38.1884L436.649 38.1936L436.648 38.1986C435.272 45.0076 431.269 51.7693 425.396 57.3244L425.396 57.325C422.302 60.2492 419.334 62.2896 415.519 64.0696L415.519 64.0694C411.588 65.9171 407.266 67.0472 402.683 67.4026L402.683 67.4023C401.084 67.5268 399.556 67.5598 398.41 67.5063C397.845 67.48 397.329 67.4308 396.932 67.3479C396.743 67.3085 396.508 67.2471 396.294 67.1385C396.177 67.0788 395.552 66.7515 395.551 65.9953V65.9947C395.551 65.8257 395.588 65.692 395.604 65.6401C395.623 65.5721 395.646 65.5125 395.664 65.4687C395.701 65.3807 395.745 65.2918 395.786 65.2124C395.871 65.0502 395.984 64.8541 396.112 64.6429C396.37 64.2166 396.719 63.6738 397.098 63.1063C397.849 61.9803 398.759 60.6928 399.345 59.9777C400.858 58.1308 404.284 54.6877 406.328 52.9797C410.261 49.6775 413.211 47.9421 421.515 44.0286C421.886 43.8522 422.171 43.6926 422.384 43.5499C422.235 43.5423 422.072 43.5376 421.896 43.5367C421.009 43.5319 419.962 43.6195 419.191 43.7898L419.187 43.7903C415.083 44.6815 412.645 45.5977 409.022 47.6154L409.019 47.6174C405.899 49.3415 402.659 52.057 399.927 55.1023C397.188 58.1537 395.028 61.4589 393.996 64.3244C393.015 67.0597 392.729 68.3628 392.617 70.5469L392.597 70.9964C392.564 71.8388 392.546 72.4466 392.574 72.9187C392.603 73.3948 392.674 73.5971 392.727 73.689L393.707 75.3805H382.028L383.28 73.6042C383.337 73.5239 383.365 73.4803 383.391 73.2997C383.428 73.0456 383.44 72.6339 383.43 71.8192V71.8145C383.41 69.3415 383.128 67.7096 382.286 65.1474C379.939 58.0167 374.822 51.8214 367.582 47.4537C367.166 47.2063 366.737 46.96 366.382 46.7646C366.204 46.6662 366.049 46.5832 365.926 46.5203C365.864 46.4889 365.815 46.4643 365.777 46.4463C365.735 46.4268 365.721 46.4213 365.726 46.4232C365.419 46.305 364.578 45.9255 363.856 45.585C362.655 45.0418 360.382 44.3307 357.898 43.7903L357.896 43.7898L357.894 43.7892C357.178 43.6304 356.113 43.5419 355.158 43.5419C354.858 43.5419 354.583 43.5506 354.344 43.5667C354.502 43.6683 354.696 43.7776 354.929 43.891C355.412 44.1221 357.409 45.0988 359.361 46.0436L359.362 46.0444C366.373 49.4533 372.021 53.7507 376.188 58.8523C376.444 59.1589 376.686 59.4512 376.867 59.6701C376.958 59.7806 377.033 59.871 377.089 59.937C377.119 59.9732 377.138 59.9945 377.147 60.0049C377.413 60.2638 377.745 60.7213 378.041 61.1479C378.389 61.6504 378.786 62.2623 379.161 62.8656C379.535 63.4681 379.894 64.0751 380.163 64.5673C380.297 64.8114 380.416 65.0419 380.505 65.2363C380.549 65.3323 380.593 65.4364 380.629 65.5386C380.651 65.6035 380.721 65.8022 380.721 66.0354V66.0373C380.72 66.7219 380.194 67.0466 380.063 67.1206C379.872 67.2291 379.67 67.2874 379.527 67.3217C379.224 67.3951 378.843 67.4397 378.447 67.4689C377.638 67.5287 376.556 67.5379 375.404 67.5069C373.118 67.4454 370.384 67.2201 368.766 66.8489L368.764 66.8486C362.895 65.492 357.324 62.8194 352.95 59.2272C351.092 57.7082 347.862 54.3764 346.35 52.4463C342.76 47.8796 340.206 42.5317 339.334 37.6451V37.6446C339.194 36.8536 339.104 36.14 339.124 35.5187C339.144 34.8872 339.281 34.2537 339.682 33.7102C340.084 33.1645 340.65 32.8504 341.246 32.652C341.831 32.4576 342.532 32.3463 343.314 32.263L343.32 32.2624C345.79 32.0114 352.458 31.9901 354.859 32.2426L354.859 32.2429C359.636 32.741 363.864 33.8234 367.65 35.5255L368.089 35.7261C377.269 39.9768 383.514 46.8381 387.456 56.9264C387.708 57.5565 387.956 58.1546 388.172 58.6564C388.276 58.4116 388.395 58.1226 388.53 57.7825C392.529 47.5391 399.503 39.8408 408.659 35.6579L409.097 35.4612Z" fill="#2C9A6E"/>
</svg>
