<svg width="1552" height="500" viewBox="0 0 1552 500" fill="none" xmlns="http://www.w3.org/2000/svg">
<g clip-path="url(#clip0_15_465)">
<path d="M86.0004 44.7995C39.6004 55.5995 13.0004 78.5995 2.80038 116.599C-0.39962 128.799 -0.79962 159.799 2.00038 170.199C4.80038 180.199 11.8004 189.999 20.0004 195.599C28.8004 201.399 46.0004 206.399 55.0004 205.599L62.0004 204.999L56.0004 195.999C40.6004 172.799 39.8004 116.199 54.4004 95.3995C59.0004 88.9995 66.4004 84.7995 77.8004 82.1995L86.0004 80.3995V233.199V385.999H120H154V299.999V213.999H188H222V195.999V177.999H188H154V133.799V89.5995L159.6 90.7995C177.6 94.5995 201.8 97.9995 209.8 97.9995C236 97.9995 247.8 85.7995 251 55.1995L252.6 41.5995L243.8 43.1995C233.8 45.1995 200.6 45.1995 139 43.3995C107.8 42.3995 94.2004 42.7995 86.0004 44.7995Z" fill="black"/>
<path d="M918 68.7995L889 72.9995L888 195C886.8 315.6 886.8 317.2 882.4 329.2C877 343.8 866.6 356.6 855.8 362C851.6 364.2 847.6 366 847 366C846.4 366 846 318.8 846 261V156H812H778V163.2V170.4L769.6 163.2C759.8 154.8 753.2 153.2 731.4 154.4C719.2 155 712 156.6 703.4 160.6C679.8 171.4 660 199.2 651.8 233.2C646.4 255.6 645.6 296.8 650.4 314.2C653.2 324.4 653.2 326 650.2 330.8C643 342.6 620.6 346.2 611.8 336.8L607 331.6L606.4 243.8L605.8 156H572H538V233.4C538 283.8 537.2 313.8 535.8 319C534.6 323.4 530.2 330.2 525.8 334.6C519 341.4 517.2 342.2 509.8 341.6C503.4 341.2 500.4 339.8 497.2 335.4C493.2 329.8 493 327.4 492.4 242.8L491.8 156H458H424V238.4C424 283.8 425 327.2 426 334.6C428.4 351.6 436.6 368.6 445.8 376.2C457 385.4 469.6 388.6 490.8 387.6C506.2 387 510.6 386 518.2 381.6C528.6 375.4 541.2 362.2 544.8 353.6L547.4 347.8L551 357.2C555.6 369.4 568.6 382.4 579.2 385.6C590.6 389 615.2 388.6 627.2 385C640 381 654 370.6 661.2 359.6L666.8 350.8L674.4 358.4C683.4 367.4 697.4 374.8 711.6 377.8C735.4 382.8 752.2 378.4 767.6 363L778 352.6V369.4C778 383.6 777.4 386.2 774.6 387.2C765.4 390.2 742.2 402.4 736 407.6C712 427.6 710.6 464.199 733.2 483.999C746.8 495.799 756.4 498.999 780 498.999C797.2 498.999 802.6 498.199 810 494.799C835.2 482.999 846 457.999 846 410.8V390.6L860.8 383.2C870.8 378.4 878.6 372.6 884.6 366C894 355.4 896 354.2 896 358.8C896 360.2 899.6 365.6 904 370.6C916.2 384.4 929.2 388.6 955 387.6C978.8 386.4 989.4 382.2 1002.8 368.6C1017 354.2 1030 325 1030 307.2C1030 302.4 1029.4 302 1020.2 302C1010.4 302 1010.4 302 1009 309.6C1006 327.6 992 342 977.8 342C967.2 342 960.6 338.4 958 331.4C956.8 327.4 956 280.8 956 194.8V63.9995L951.6 64.1995C949 64.3995 934 66.3995 918 68.7995ZM768.2 186C777 190.8 778 196.8 778 250.4C778 281.2 777.2 304.2 775.8 309C772.8 319.8 760.6 331.2 750.4 333C737.2 335.2 728.8 330.2 722.4 316.6C717.2 305.4 717 303.8 717 272C717 245.8 717.8 236.6 720.8 227C729.2 199.2 741.8 184 756.2 184C760.6 184 766 185 768.2 186ZM778 423.4C777.8 446.599 771.6 460.599 760.6 461.599C756.4 461.999 752.6 460.599 748.8 457.399C740.8 450.399 741 438.4 749.2 429.6C754.6 424 773 412 776.6 412C777.4 412 778 417.2 778 423.4Z" fill="black"/>
<path d="M350.4 156.999C346.8 158.599 338.4 164.999 332 171.199L320 182.599V169.399V155.999H286H252V270.999V385.999H286H320V299.199V212.599L328.8 204.399C337.8 195.999 345.6 192.599 351 194.599C352.6 195.399 356.2 200.199 358.8 205.799C365.4 218.599 370.4 221.999 383 221.999C399.8 221.999 408 212.799 408 193.599C408 180.799 402.4 170.199 391.4 161.199C384.8 155.999 381.8 154.999 370.4 154.599C361.6 154.199 354.6 154.999 350.4 156.999Z" fill="black"/>
</g>
<path fill-rule="evenodd" clip-rule="evenodd" d="M1415.21 380.966C1406.01 383.701 1389.77 386 1379.56 386C1372.77 386 1364.45 384.982 1356.69 383.46C1348.98 381.947 1341.2 379.814 1335.64 377.341C1316.79 368.946 1307.15 362.501 1293.8 349.227L1293.79 349.218L1293.78 349.211C1286.92 342.346 1278.41 331.581 1274.98 325.326L1274.95 325.271C1270.73 317.444 1268.08 311.821 1266.4 306.449C1266.18 305.77 1265.94 305.094 1265.74 304.596C1265.7 304.503 1265.67 304.426 1265.64 304.364C1265.63 304.342 1265.63 304.322 1265.62 304.303C1265.26 303.708 1265.06 303.197 1264.99 303.043L1264.99 303.03C1264.87 302.725 1264.76 302.432 1264.68 302.2C1264.52 301.727 1264.36 301.185 1264.2 300.64C1263.88 299.533 1263.5 298.099 1263.09 296.49C1262.27 293.255 1261.27 289.096 1260.31 284.963L1260.28 284.845L1260.26 284.727C1259.78 282.318 1259.14 276.751 1258.83 272.168L1258.83 272.138L1258.83 272.11C1258.78 271.384 1258.73 270.707 1258.68 270.081C1256.61 270.043 1254.02 270.039 1250.96 270.066L1244.37 270.177L1244.33 270.505L1244.32 270.522L1244.32 270.541L1244.11 272.126C1241.87 288.405 1238.46 301.876 1232.85 314.14C1227.05 326.837 1219.08 337.857 1208.27 349.218L1208.24 349.255L1208.2 349.29L1206.99 350.515C1204.03 353.465 1200.24 356.953 1197.86 358.779L1197.81 358.818L1197.76 358.855L1196.94 359.468C1196.13 360.083 1195.34 360.694 1194.69 361.219C1194.25 361.57 1193.88 361.866 1193.62 362.09C1193.45 362.23 1193.37 362.307 1193.34 362.331L1193.19 362.477L1192.96 362.677L1192.71 362.883C1192.13 363.361 1191.47 363.817 1190.78 364.202C1190.39 364.423 1189.86 364.693 1189.24 364.926C1189.23 364.929 1189.22 364.932 1189.22 364.934C1189.21 364.937 1189.2 364.939 1189.19 364.942C1188.49 365.517 1187.76 366.017 1187.31 366.325C1186.43 366.916 1185.42 367.552 1184.46 368.119C1164.55 379.893 1142.89 386 1120.3 386C1093.27 386 1065.47 376.262 1043.42 359.302L1043.41 359.294C1013.37 336.097 998.574 298.154 997 256.999C998 236.999 1000 231.499 1003.35 220.212C1004.19 218.04 1005.36 215.318 1006.34 213.17C1019.41 184.254 1047.49 157.836 1076.68 146.91L1076.75 146.884C1077.48 146.617 1078.34 146.288 1079.16 145.965L1079.31 145.906C1079.93 145.666 1080.6 145.402 1081.1 145.217C1087.87 142.457 1098.12 140.063 1107 139.022C1118.5 137.665 1124.72 137.649 1135.15 139.035C1164.06 142.83 1188.38 154.866 1208.83 175.392C1224.15 190.793 1232.12 203.616 1238.53 223.155L1238.54 223.181L1238.54 223.207L1239.87 227.359H1262.11C1262.58 225.996 1263.03 224.641 1263.27 223.77L1263.31 223.611L1263.36 223.454C1264.87 218.704 1266.52 214.9 1269.74 208.476L1271.22 205.552C1275.82 196.434 1278.79 191.952 1285.67 183.327L1285.7 183.298L1285.72 183.269C1289.69 178.386 1298.21 169.783 1303.62 165.456C1306.81 162.865 1310.54 160.085 1313.65 157.928C1315.2 156.851 1316.69 155.865 1317.94 155.12C1318.55 154.755 1319.22 154.373 1319.88 154.055C1320.06 153.97 1320.27 153.871 1320.51 153.769C1320.78 153.571 1321.02 153.407 1321.19 153.289C1321.74 152.929 1322.36 152.565 1322.94 152.236C1324.15 151.558 1325.7 150.753 1327.34 149.937C1330.6 148.323 1334.65 146.463 1337.75 145.274C1352.46 139.57 1372.08 136.992 1388.15 138.549L1388.16 138.55L1388.18 138.552C1392.74 139.012 1399.1 140.143 1404.73 141.356C1410.09 142.509 1415.91 143.966 1418.85 145.271L1418.88 145.285L1418.91 145.298C1418.91 145.298 1418.92 145.301 1418.92 145.304C1418.93 145.306 1418.93 145.309 1418.94 145.312C1418.95 145.315 1418.95 145.319 1418.96 145.323C1418.99 145.333 1419.01 145.345 1419.05 145.358L1419.11 145.383C1419.23 145.435 1419.38 145.498 1419.57 145.575C1419.95 145.729 1420.42 145.917 1420.96 146.132C1421.69 146.421 1422.5 146.74 1423.34 147.071C1423.76 147.234 1424.18 147.4 1424.6 147.567C1431.74 150.342 1440.58 155.125 1449.37 160.93C1456.31 165.423 1459.88 168.344 1468.1 176.023C1476.28 183.626 1487.06 198.193 1492.37 208.573L1492.39 208.608C1494.14 212.063 1495.66 215.245 1496.77 217.74C1497.2 218.725 1497.6 219.659 1497.92 220.49C1498.82 220.518 1499.93 220.53 1501.34 220.53C1505.65 220.53 1509.42 220.617 1512.59 221.488C1516.49 222.556 1518.93 224.596 1521.02 226.734L1521.07 226.791L1521.13 226.848C1527.35 233.472 1527.79 244.326 1522.99 251.707L1522.98 251.725L1522.97 251.744C1519.05 257.691 1512.52 259.383 1505.95 259.95L1505.76 263.817C1505.53 269.906 1504.91 276.855 1504.4 279.417L1504.37 279.566L1504.33 279.715L1504.17 280.414C1503.77 282.189 1503.24 284.892 1502.93 286.75L1502.92 286.82L1502.91 286.889L1502.7 287.909C1501.61 293.124 1499.25 300.023 1496.69 306.332C1493.98 313.018 1490.63 320.02 1487.63 324.312L1487.61 324.346L1487.59 324.38L1487.32 324.777C1487.32 324.786 1487.31 324.796 1487.3 324.805C1487.3 324.813 1487.3 324.82 1487.29 324.828C1487.24 324.981 1487.2 325.09 1487.18 325.148C1487.01 325.594 1486.83 325.955 1486.72 326.169C1486.5 326.608 1486.25 327.01 1486.07 327.3C1485.68 327.911 1485.2 328.614 1484.69 329.321C1483.66 330.764 1482.27 332.602 1480.77 334.543C1477.77 338.413 1474.07 342.978 1471.37 346.037L1471.36 346.054L1471.34 346.073L1470.7 346.789C1457.01 361.786 1435.72 374.902 1415.21 380.966ZM1336.02 334.298C1350.53 343.882 1362.13 347.319 1379.97 347.389C1403.69 347.457 1423.06 339.343 1440.74 321.595C1450.9 311.362 1459.28 297.854 1462.16 287.79C1462.64 286.058 1463.35 283.612 1463.83 282.199C1464.76 279.333 1465.61 272.801 1465.91 265.248C1466.21 257.747 1465.9 250.811 1465.14 247.296L1465.14 247.279L1465.13 247.261C1463.21 238.196 1457.89 225.205 1452.79 217.203L1452.75 217.14C1451.21 214.685 1444.76 206.626 1442.35 204.068C1428.92 190.168 1411.83 180.842 1393.41 177.214C1391.79 176.923 1385.77 176.685 1378.8 176.705C1375.5 176.714 1372.25 176.779 1369.61 176.894C1368.28 176.952 1367.16 177.02 1366.28 177.094C1365.45 177.166 1365.05 177.227 1364.97 177.24C1349.14 181.006 1339.35 185.795 1327.55 195.636L1326.4 196.607C1324.43 198.315 1321.04 201.922 1317.69 205.889C1314.23 209.971 1311.59 213.521 1310.77 215.013L1310.11 216.225C1306.86 222.25 1304.29 227.953 1302.69 232.615C1301.05 237.482 1300.59 239.414 1298.71 248.904L1298.71 248.932L1298.7 248.96L1298.64 249.312C1298.32 251.282 1298.07 256.343 1298.06 262.23C1298.05 268.524 1298.33 273.78 1298.63 275.272C1301.91 291.437 1303.92 296.881 1310.53 308.279L1310.54 308.296L1310.55 308.313C1315.45 316.86 1326.11 327.881 1335.96 334.259L1335.99 334.279L1336.02 334.298ZM1105.53 346.676C1108.67 347.225 1114.81 347.522 1121.35 347.457C1127.92 347.391 1133.71 346.971 1136.3 346.431C1151.49 343.022 1164.5 336.256 1176.79 325.238C1197.38 306.719 1207.96 276.956 1203.6 249.432L1203.6 249.404L1203.59 249.376C1202.42 241.639 1200.29 233.747 1198.83 230.55L1198.82 230.522L1198.81 230.493C1191.22 213.444 1184.04 203.78 1173.19 195.304L1173.17 195.287C1166.37 189.937 1161.47 186.841 1155.85 184.301L1155.79 184.273L1155.72 184.243C1152.9 182.904 1149.86 181.498 1149.04 181.122C1149.02 181.116 1148.99 181.104 1148.95 181.087C1148.88 181.059 1148.77 181.018 1148.61 180.964C1148.31 180.857 1147.91 180.727 1147.42 180.577C1146.44 180.276 1145.21 179.93 1143.81 179.565C1141.02 178.836 1137.76 178.079 1134.86 177.507C1132.64 177.093 1126.97 176.761 1120.68 176.714C1114.26 176.665 1108.9 176.93 1107.24 177.267L1105.75 177.58C1098.35 179.18 1091.89 181.392 1085.57 184.393C1082.34 185.933 1079.07 187.669 1076.49 189.168C1075.19 189.921 1074.14 190.574 1073.38 191.082C1072.95 191.367 1072.73 191.537 1072.65 191.6C1072.54 191.712 1072.46 191.797 1072.41 191.845C1072.21 192.039 1072.02 192.21 1071.87 192.34C1071.57 192.602 1071.24 192.875 1070.94 193.12C1070.44 193.522 1069.83 194.003 1069.25 194.461C1069.13 194.558 1069.01 194.654 1068.89 194.749L1068.82 194.798L1068.76 194.847C1059.52 201.844 1049.04 214.902 1043.88 226.108L1043.87 226.132L1043.86 226.155C1037.19 240.413 1035.17 250.382 1035.73 265.874L1035.73 265.894C1036.5 288.629 1044.05 305.838 1060.48 322.267C1073.85 335.64 1088.94 343.727 1105.53 346.676Z" fill="black"/>
<path d="M1121.21 219.501C1106.04 223.067 1096.48 229.592 1089.5 240.973C1084.26 249.395 1082.59 256.982 1083.12 269.502C1083.5 276.937 1083.88 279.061 1085.86 283.766C1089.5 292.643 1094.13 298.106 1102.4 303.417C1113.32 310.549 1127.13 313.053 1139.19 310.169C1153.84 306.603 1168.03 293.401 1171.9 279.517C1173.11 275.04 1173.41 263.583 1172.35 259.714C1171.21 255.541 1167.95 250.533 1165.29 248.788C1164.23 248.03 1161.88 247.498 1160.06 247.498C1157.18 247.498 1156.19 247.954 1152.4 251.292C1147.69 255.389 1144.73 256.148 1140.71 254.023C1136.77 251.975 1135.02 249.319 1135.1 245.526C1135.1 241.277 1136.77 239.304 1142.46 236.573C1147.24 234.372 1148.91 232.248 1148.91 228.53C1148.91 224.509 1146.02 222.157 1138.89 220.26C1132.74 218.591 1126.3 218.363 1121.21 219.501Z" fill="black"/>
<path d="M1371.21 219.35C1370.15 219.729 1367.42 220.412 1365.14 220.943C1356.57 222.916 1347.16 229.517 1340.87 238.014C1334.57 246.588 1332.52 253.113 1332.52 264.873C1332.52 274.661 1333.35 278.682 1337 286.573C1340.26 293.629 1349.74 303.113 1356.87 306.527C1371.9 313.735 1389.27 312.597 1402.93 303.644C1413.02 297.043 1419.01 288.773 1422.13 277.316C1426.22 261.838 1420.53 247.498 1410.14 247.498C1407.56 247.498 1406.42 248.105 1402.78 251.292C1399.36 254.251 1397.85 255.086 1395.87 255.086C1388.97 255.086 1383.66 249.319 1385.18 243.477C1385.78 240.973 1389.88 237.028 1392.53 236.497C1395.87 235.738 1399.29 231.565 1399.29 228.151C1399.29 226.558 1395.49 222.46 1393.29 221.55C1386.47 218.894 1375.99 217.832 1371.21 219.35Z" fill="black"/>
<path d="M1298.09 381.02C1300.39 382.457 1301.28 384.542 1301.56 385.305C1301.94 386.303 1302.09 387.226 1302.16 387.898C1302.29 389.234 1302.2 390.733 1301.8 392.189L1301.8 392.214L1301.79 392.238C1300.66 396.287 1298.43 399.011 1295.49 401.868L1295.48 401.875C1289.4 407.747 1282.02 413.27 1275.81 416.276L1275.78 416.292C1273.26 417.497 1271.23 418.343 1268.99 419.046L1268.97 419.053L1268.94 419.059C1265.56 420.096 1263.32 420.471 1259.83 420.666C1259.63 420.677 1259.39 420.696 1259.14 420.715C1259.03 420.723 1258.9 420.732 1258.79 420.74C1258.74 420.744 1258.65 420.749 1258.55 420.755C1258.25 420.778 1258.02 420.781 1257.95 420.781C1257.72 420.783 1257.52 420.775 1257.39 420.769C1257.11 420.756 1256.84 420.735 1256.62 420.715C1256.16 420.674 1255.62 420.614 1255.08 420.55C1254.01 420.422 1252.73 420.246 1251.71 420.084L1251.69 420.081L1251.68 420.079C1249.65 419.745 1247.31 418.849 1245.09 417.922C1244.71 417.781 1244.47 417.664 1244.45 417.656C1244.2 417.537 1243.96 417.417 1243.79 417.326C1243.44 417.139 1243.04 416.917 1242.67 416.702C1241.91 416.263 1240.98 415.708 1240.08 415.164C1238.34 414.109 1236.42 412.912 1235.87 412.544L1235.85 412.536L1235.84 412.528C1234.46 411.6 1233.03 410.265 1231.97 409.189C1230.89 408.084 1229.63 406.662 1228.71 405.294C1228.7 405.292 1228.7 405.29 1228.7 405.287C1228.69 405.281 1228.69 405.275 1228.69 405.269C1225.19 400.102 1223.4 395.516 1222.55 389.437L1222.55 389.417L1222.54 389.396C1221.79 383.826 1222.01 378.696 1223.12 372.024L1223.12 372.01C1223.82 367.883 1224.52 364.794 1225.74 360.786L1226.27 359.09C1227.47 355.285 1228.62 352.515 1231.16 349.882C1232.46 348.532 1234.5 346.888 1237.15 346.244C1238.48 345.921 1241 345.617 1243.61 347.036C1246.6 348.663 1247.82 351.496 1248.08 353.716L1248.09 353.757L1248.09 353.798C1248.37 356.434 1247.55 358.928 1246.93 361.033C1243.13 373.973 1243.35 380.72 1245.51 385.998C1245.94 387.055 1246.05 387.283 1246.13 387.426C1246.16 387.485 1246.2 387.561 1246.31 387.731L1246.9 388.604L1246.95 388.679L1247 388.755C1247.19 389.037 1247.39 389.344 1247.6 389.646C1247.69 389.79 1247.79 389.94 1247.88 390.072C1247.91 390.113 1247.94 390.161 1247.97 390.212C1248.02 390.265 1248.07 390.329 1248.13 390.395C1248.18 390.453 1248.23 390.503 1248.27 390.545C1249.74 392.03 1251.75 393.53 1253.82 394.69C1256.04 395.933 1257.61 396.387 1258.17 396.448C1259.1 396.537 1260.31 396.721 1260.68 396.773L1260.77 396.786L1260.87 396.801C1260.79 396.789 1260.89 396.808 1261.2 396.821C1261.49 396.833 1261.85 396.834 1262.24 396.822C1263.1 396.797 1263.77 396.718 1264.05 396.663L1264.06 396.663C1268.1 395.876 1270.55 394.896 1274.82 392.145C1277.94 390.123 1282.24 386.68 1284.93 384.046C1285.96 383.043 1287.18 382.016 1288.5 381.237C1289.13 380.865 1290.12 380.345 1291.36 380.03C1292.33 379.781 1295.19 379.207 1298.09 381.02Z" fill="black"/>
<path d="M1452.41 12.2871C1474.96 2.30947 1504.26 -1.80609 1533.31 0.731462L1534.7 0.858416C1539.03 1.28033 1542.39 1.74323 1544.88 2.87404C1547.88 4.23551 1549.33 6.38633 1550.39 8.84963C1551.09 10.4258 1551.56 11.8669 1551.46 14.1211C1551.38 15.9288 1550.92 18.3504 1550.23 21.9688L1550.22 21.9873L1550.22 22.0049C1545.33 46.1769 1531.12 70.1805 1510.28 89.9014L1510.27 89.9033C1499.29 100.284 1488.76 107.528 1475.21 113.847L1475.21 113.846C1461.26 120.405 1445.91 124.417 1429.64 125.679L1429.64 125.678C1423.97 126.12 1418.54 126.237 1414.48 126.047C1412.47 125.953 1410.64 125.779 1409.23 125.484C1408.56 125.345 1407.72 125.127 1406.96 124.741C1406.55 124.529 1404.33 123.367 1404.33 120.683V120.681C1404.33 120.081 1404.46 119.606 1404.51 119.422C1404.58 119.18 1404.66 118.969 1404.73 118.813C1404.86 118.501 1405.01 118.185 1405.16 117.903C1405.46 117.328 1405.86 116.632 1406.32 115.882C1407.23 114.368 1408.47 112.441 1409.82 110.427C1412.48 106.43 1415.72 101.859 1417.79 99.3203C1423.16 92.7641 1435.33 80.541 1442.58 74.4776C1456.54 62.755 1467.02 56.5941 1496.5 42.7012C1497.81 42.075 1498.82 41.5084 1499.58 41.002C1499.05 40.9751 1498.47 40.9585 1497.85 40.9551C1494.7 40.9382 1490.98 41.249 1488.25 41.8535L1488.23 41.8555C1473.67 45.0193 1465.01 48.2715 1452.15 55.4346L1452.14 55.4414C1441.06 61.5619 1429.56 71.202 1419.86 82.0127C1410.14 92.8453 1402.47 104.579 1398.8 114.751C1395.32 124.461 1394.31 129.087 1393.91 136.841L1393.84 138.437C1393.72 141.427 1393.66 143.585 1393.76 145.261C1393.86 146.951 1394.11 147.669 1394.3 147.995L1397.78 154H1356.32L1360.76 147.694C1360.97 147.409 1361.06 147.254 1361.16 146.613C1361.29 145.711 1361.33 144.25 1361.3 141.357V141.341C1361.23 132.562 1360.22 126.769 1357.23 117.673C1348.9 92.359 1330.74 70.3655 1305.04 54.8604C1303.56 53.9822 1302.04 53.1077 1300.78 52.4141C1300.14 52.0649 1299.59 51.7701 1299.16 51.5469C1298.94 51.4353 1298.76 51.3482 1298.63 51.2842C1298.48 51.2148 1298.43 51.1954 1298.45 51.2022C1297.36 50.7825 1294.37 49.4355 1291.81 48.2266C1287.55 46.2981 1279.48 43.7737 1270.66 41.8555L1270.65 41.8535L1270.64 41.8516C1268.1 41.2877 1264.32 40.9737 1260.93 40.9736C1259.87 40.9736 1258.89 41.0043 1258.04 41.0615C1258.6 41.4223 1259.29 41.8104 1260.12 42.2129C1261.83 43.0331 1268.92 46.5004 1275.85 49.8545L1275.86 49.8574C1300.74 61.9589 1320.79 77.2146 1335.59 95.3252C1336.5 96.4136 1337.35 97.4515 1338 98.2285C1338.32 98.6207 1338.59 98.9417 1338.79 99.1758C1338.89 99.3045 1338.96 99.3799 1338.99 99.417C1339.93 100.336 1341.12 101.96 1342.16 103.475C1343.4 105.258 1344.81 107.431 1346.14 109.572C1347.47 111.711 1348.74 113.866 1349.7 115.613C1350.17 116.48 1350.6 117.298 1350.91 117.988C1351.07 118.329 1351.22 118.699 1351.35 119.062C1351.43 119.292 1351.68 119.997 1351.68 120.825V120.832C1351.67 123.262 1349.81 124.415 1349.34 124.678C1348.66 125.063 1347.95 125.27 1347.44 125.392C1346.36 125.652 1345.01 125.81 1343.61 125.914C1340.73 126.126 1336.89 126.159 1332.8 126.049C1324.69 125.831 1314.98 125.031 1309.24 123.713L1309.23 123.712C1288.4 118.896 1268.62 109.409 1253.09 96.6563C1246.5 91.2636 1235.03 79.4359 1229.66 72.584C1216.92 56.3722 1207.85 37.3875 1204.76 20.0401V20.0381C1204.26 17.2301 1203.94 14.6968 1204.01 12.4912C1204.08 10.2496 1204.57 8.00053 1205.99 6.07131C1207.42 4.13388 1209.43 3.01887 1211.55 2.31447C1213.62 1.62453 1216.11 1.22945 1218.88 0.933611L1218.9 0.931658C1227.68 0.040561 1251.34 -0.03513 1259.87 0.861345L1259.87 0.862322C1276.83 2.63068 1291.84 6.47308 1305.28 12.5156L1306.84 13.2276C1339.43 28.3177 1361.6 52.675 1375.59 88.4883C1376.48 90.725 1377.36 92.8483 1378.13 94.6299C1378.5 93.7607 1378.92 92.735 1379.4 91.5274C1393.6 55.1635 1418.35 27.8347 1450.86 12.9854L1452.41 12.2871Z" fill="black"/>
<defs>
<clipPath id="clip0_15_465">
<rect width="1030" height="458" fill="white" transform="translate(0 41.9995)"/>
</clipPath>
</defs>
</svg>
